<?xml version="1.0" encoding="UTF-8" standalone="no"?>
<!DOCTYPE svg PUBLIC "-//W3C//DTD SVG 1.1//EN" "http://www.w3.org/Graphics/SVG/1.1/DTD/svg11.dtd">
<svg width="100%" height="100%" viewBox="0 0 1728 640" version="1.1" xmlns="http://www.w3.org/2000/svg" xmlns:xlink="http://www.w3.org/1999/xlink" xml:space="preserve" xmlns:serif="http://www.serif.com/" style="fill-rule:evenodd;clip-rule:evenodd;stroke-linejoin:round;stroke-miterlimit:2;">
    <rect id="Logo" x="0" y="0" width="1728" height="640" style="fill:none;"/>
    <g id="Calling">
        <path d="M726.337,514.035C713.941,514.035 702.467,512.08 691.916,508.169C681.364,504.258 672.215,498.688 664.467,491.456C656.72,484.225 650.706,475.666 646.426,465.779C642.147,455.891 640.007,444.971 640.007,433.018C640.007,421.064 642.147,410.144 646.426,400.256C650.706,390.369 656.72,381.81 664.467,374.579C672.215,367.348 681.364,361.777 691.916,357.866C702.467,353.955 713.941,352 726.337,352C741.537,352 755.003,354.656 766.735,359.969C778.467,365.282 788.17,372.955 795.844,382.99L762.861,412.431C758.287,406.676 753.232,402.212 747.698,399.039C742.164,395.866 735.929,394.28 728.993,394.28C723.533,394.28 718.589,395.165 714.162,396.936C709.735,398.707 705.935,401.289 702.762,404.684C699.589,408.078 697.118,412.173 695.347,416.969C693.576,421.765 692.69,427.115 692.69,433.018C692.69,438.92 693.576,444.27 695.347,449.066C697.118,453.862 699.589,457.957 702.762,461.352C705.935,464.746 709.735,467.328 714.162,469.099C718.589,470.87 723.533,471.755 728.993,471.755C735.929,471.755 742.164,470.169 747.698,466.996C753.232,463.823 758.287,459.359 762.861,453.604L795.844,483.045C788.17,492.932 778.467,500.569 766.735,505.955C755.003,511.342 741.537,514.035 726.337,514.035Z" style="fill:#ffffff;"/>
        <path d="M855.365,483.487L844.986,510.493L791.859,510.493L859.595,355.542L910.951,355.542L978.687,510.493L924.675,510.493L914.295,483.487L855.365,483.487ZM899.832,445.856L884.83,406.827L869.829,445.856L899.832,445.856Z" style="fill:#ffffff;"/>
        <path d="M987.098,510.493L987.098,355.542L1039.34,355.542L1039.34,469.985L1109.29,469.985L1109.29,510.493L987.098,510.493Z" style="fill:#ffffff;"/>
        <path d="M1123.68,510.493L1123.68,355.542L1175.92,355.542L1175.92,469.985L1245.87,469.985L1245.87,510.493L1123.68,510.493Z" style="fill:#ffffff;"/>
        <rect x="1260.26" y="355.542" width="52.241" height="154.952" style="fill:#ffffff;"/>
        <path d="M1388.64,440.034L1388.64,510.493L1337.73,510.493L1337.73,355.542L1380.67,355.542L1439.56,426.001L1439.56,355.542L1490.47,355.542L1490.47,510.493L1447.53,510.493L1388.64,440.034Z" style="fill:#ffffff;"/>
        <path d="M1663.57,494.334C1654.13,500.68 1643.36,505.55 1631.25,508.944C1619.15,512.338 1607.42,514.035 1596.06,514.035C1583.51,514.035 1571.97,512.08 1561.41,508.169C1550.86,504.258 1541.71,498.688 1533.97,491.456C1526.22,484.225 1520.21,475.666 1515.93,465.779C1511.65,455.891 1509.51,444.971 1509.51,433.018C1509.51,421.064 1511.65,410.144 1515.93,400.256C1520.21,390.369 1526.26,381.81 1534.08,374.579C1541.9,367.348 1551.16,361.777 1561.86,357.866C1572.56,353.955 1584.33,352 1597.16,352C1612.51,352 1626.2,354.583 1638.23,359.748C1650.25,364.913 1660.18,372.291 1668,381.884L1634.58,411.324C1629.7,405.717 1624.43,401.474 1618.75,398.596C1613.07,395.718 1606.76,394.28 1599.82,394.28C1594.07,394.28 1588.86,395.165 1584.22,396.936C1579.57,398.707 1575.62,401.289 1572.37,404.684C1569.13,408.078 1566.62,412.136 1564.85,416.858C1563.08,421.581 1562.19,426.967 1562.19,433.018C1562.19,438.773 1563.08,444.049 1564.85,448.845C1566.62,453.641 1569.13,457.736 1572.37,461.13C1575.62,464.524 1579.49,467.144 1583.99,468.988C1588.5,470.833 1593.55,471.755 1599.16,471.755C1605.06,471.755 1610.82,470.759 1616.42,468.767C1617.01,468.559 1617.6,468.335 1618.19,468.095L1618.19,428.812L1663.57,428.812L1663.57,494.334Z" style="fill:#ffffff;"/>
    </g>
    <g id="Sales">
        <path d="M705.515,288C692.528,288 679.985,286.524 667.884,283.573C655.783,280.621 645.821,276.784 638,272.062L654.823,233.988C662.202,238.268 670.429,241.699 679.505,244.282C688.581,246.864 697.398,248.155 705.957,248.155C710.975,248.155 714.922,247.823 717.8,247.159C720.678,246.495 722.781,245.536 724.109,244.282C725.437,243.027 726.101,241.515 726.101,239.744C726.101,236.94 724.552,234.726 721.452,233.103C718.353,231.48 714.258,230.115 709.167,229.008C704.076,227.901 698.505,226.72 692.454,225.466C686.404,224.212 680.317,222.551 674.192,220.485C668.068,218.419 662.46,215.689 657.369,212.295C652.278,208.901 648.183,204.437 645.084,198.903C641.984,193.369 640.435,186.47 640.435,178.206C640.435,168.613 643.128,159.87 648.515,151.975C653.901,144.079 661.944,137.771 672.643,133.048C683.342,128.326 696.66,125.965 712.598,125.965C723.076,125.965 733.406,127.072 743.588,129.285C753.771,131.499 762.92,134.893 771.037,139.468L755.32,177.32C747.647,173.483 740.231,170.606 733.074,168.687C725.917,166.769 718.944,165.81 712.155,165.81C707.138,165.81 703.153,166.252 700.202,167.138C697.251,168.023 695.148,169.204 693.893,170.68C692.639,172.155 692.012,173.779 692.012,175.549C692.012,178.206 693.561,180.309 696.66,181.858C699.759,183.408 703.854,184.699 708.946,185.732C714.037,186.765 719.645,187.872 725.769,189.052C731.893,190.233 737.981,191.856 744.031,193.922C750.082,195.988 755.653,198.718 760.744,202.113C765.835,205.507 769.93,209.934 773.029,215.394C776.128,220.854 777.678,227.643 777.678,235.759C777.678,245.204 774.985,253.874 769.598,261.769C764.212,269.664 756.206,276.01 745.581,280.806C734.955,285.602 721.6,288 705.515,288Z" style="fill:#ffffff;"/>
        <path d="M839.856,257.452L829.476,284.458L776.35,284.458L844.086,129.507L895.441,129.507L963.177,284.458L909.165,284.458L898.785,257.452L839.856,257.452ZM884.322,219.821L869.321,180.792L854.319,219.821L884.322,219.821Z" style="fill:#ffffff;"/>
        <path d="M971.589,284.458L971.589,129.507L1023.83,129.507L1023.83,243.949L1093.78,243.949L1093.78,284.458L971.589,284.458Z" style="fill:#ffffff;"/>
        <path d="M1159.52,224.691L1159.52,245.056L1237,245.056L1237,284.458L1108.17,284.458L1108.17,129.507L1234.12,129.507L1234.12,168.909L1159.52,168.909L1159.52,187.06L1225.05,187.06L1225.05,224.691L1159.52,224.691Z" style="fill:#ffffff;"/>
        <path d="M1314.92,288C1301.93,288 1289.39,286.524 1277.29,283.573C1265.18,280.621 1255.22,276.784 1247.4,272.062L1264.23,233.988C1271.6,238.268 1279.83,241.699 1288.91,244.282C1297.98,246.864 1306.8,248.155 1315.36,248.155C1320.38,248.155 1324.33,247.823 1327.2,247.159C1330.08,246.495 1332.18,245.536 1333.51,244.282C1334.84,243.027 1335.5,241.515 1335.5,239.744C1335.5,236.94 1333.95,234.726 1330.86,233.103C1327.76,231.48 1323.66,230.115 1318.57,229.008C1313.48,227.901 1307.91,226.72 1301.86,225.466C1295.81,224.212 1289.72,222.551 1283.6,220.485C1277.47,218.419 1271.86,215.689 1266.77,212.295C1261.68,208.901 1257.59,204.437 1254.49,198.903C1251.39,193.369 1249.84,186.47 1249.84,178.206C1249.84,168.613 1252.53,159.87 1257.92,151.975C1263.3,144.079 1271.35,137.771 1282.05,133.048C1292.74,128.326 1306.06,125.965 1322,125.965C1332.48,125.965 1342.81,127.072 1352.99,129.285C1363.17,131.499 1372.32,134.893 1380.44,139.468L1364.72,177.32C1357.05,173.483 1349.63,170.606 1342.48,168.687C1335.32,166.769 1328.35,165.81 1321.56,165.81C1316.54,165.81 1312.56,166.252 1309.6,167.138C1306.65,168.023 1304.55,169.204 1303.3,170.68C1302.04,172.155 1301.41,173.779 1301.41,175.549C1301.41,178.206 1302.96,180.309 1306.06,181.858C1309.16,183.408 1313.26,184.699 1318.35,185.732C1323.44,186.765 1329.05,187.872 1335.17,189.052C1341.3,190.233 1347.38,191.856 1353.43,193.922C1359.48,195.988 1365.06,198.718 1370.15,202.113C1375.24,205.507 1379.33,209.934 1382.43,215.394C1385.53,220.854 1387.08,227.643 1387.08,235.759C1387.08,245.204 1384.39,253.874 1379,261.769C1373.61,269.664 1365.61,276.01 1354.98,280.806C1344.36,285.602 1331,288 1314.92,288Z" style="fill:#ffffff;"/>
    </g>
    <g id="Phone">
        <path d="M343.988,64.023C472.082,64.023 575.977,167.918 575.977,296.012C575.977,309.312 565.278,320.011 551.979,320.011C538.679,320.011 527.98,309.312 527.98,296.012C527.98,194.417 445.583,112.02 343.988,112.02C330.688,112.02 319.989,101.321 319.989,88.021C319.989,74.722 330.688,64.023 343.988,64.023Z" style="fill:rgb(230,186,90);"/>
        <path d="M351.987,256.014C369.541,256.014 383.986,270.459 383.986,288.013C383.986,305.567 369.541,320.011 351.987,320.011C334.433,320.011 319.989,305.567 319.989,288.013C319.989,270.459 334.433,256.014 351.987,256.014Z" style="fill:rgb(230,186,90);"/>
        <path d="M319.989,184.017C319.989,170.718 330.688,160.018 343.988,160.018C419.084,160.018 479.982,220.916 479.982,296.012C479.982,309.312 469.282,320.011 455.983,320.011C442.683,320.011 431.984,309.312 431.984,296.012C431.984,247.414 392.586,208.016 343.988,208.016C330.688,208.016 319.989,197.317 319.989,184.017Z" style="fill:rgb(230,186,90);"/>
        <path d="M181.495,65.422C200.894,60.123 221.193,70.022 228.893,88.621L268.891,184.617C275.691,200.917 270.991,219.816 257.291,230.915L207.994,271.313C241.292,341.71 298.29,398.708 368.687,432.006L408.985,382.709C420.184,369.009 438.983,364.309 455.283,371.109L551.279,411.107C569.878,418.807 579.777,439.106 574.478,458.505L550.479,546.501C545.779,563.901 529.979,576 511.98,576C264.591,576 64,375.409 64,128.02C64,110.021 76.099,94.221 93.499,89.421L181.495,65.422Z" style="fill:rgb(230,186,90);"/>
    </g>
</svg>
