<?xml version="1.0" standalone="no"?>
<!DOCTYPE svg PUBLIC "-//W3C//DTD SVG 20010904//EN"
 "http://www.w3.org/TR/2001/REC-SVG-20010904/DTD/svg10.dtd">
<svg version="1.0" xmlns="http://www.w3.org/2000/svg"
 width="641.000000pt" height="641.000000pt" viewBox="0 0 641.000000 641.000000"
 preserveAspectRatio="xMidYMid meet">
<metadata>
Created by potrace 1.14, written by Peter Selinger 2001-2017
</metadata>
<g transform="translate(0.000000,641.000000) scale(0.100000,-0.100000)"
fill="#000000" stroke="none">
<path d="M1844 5755 c-49 -11 -524 -137 -654 -175 -19 -5 -93 -26 -165 -46
-149 -41 -207 -69 -267 -130 -100 -101 -120 -172 -113 -408 3 -100 7 -203 9
-231 3 -27 8 -77 11 -110 3 -34 7 -71 10 -84 2 -13 7 -49 10 -80 4 -31 8 -63
10 -71 3 -8 7 -31 10 -50 3 -19 8 -48 11 -65 3 -16 12 -61 20 -100 8 -38 17
-81 20 -95 4 -20 36 -143 48 -185 1 -5 8 -30 15 -55 23 -83 113 -345 122 -354
5 -6 9 -16 9 -23 0 -36 181 -418 278 -588 57 -99 153 -249 212 -334 25 -35 52
-73 60 -85 51 -76 206 -264 315 -385 248 -275 640 -599 950 -788 282 -171 611
-327 893 -424 93 -32 352 -108 391 -115 12 -3 53 -12 90 -20 88 -21 100 -23
141 -30 19 -2 58 -9 85 -14 59 -11 95 -17 150 -24 22 -3 65 -8 95 -12 72 -9
103 -12 240 -20 325 -18 402 -7 505 70 55 42 94 87 124 143 9 19 143 488 156
548 2 11 29 112 61 225 58 208 68 284 51 373 -18 94 -95 202 -181 252 -23 13
-180 82 -351 153 -778 325 -749 315 -870 301 -69 -8 -162 -52 -215 -102 -19
-17 -75 -82 -124 -142 -49 -61 -106 -130 -127 -155 -20 -25 -72 -87 -114 -137
-41 -51 -79 -93 -83 -93 -22 1 -261 133 -387 215 -101 65 -145 97 -245 173
-358 276 -687 671 -910 1095 -54 103 -60 120 -47 130 33 26 212 172 217 177 4
5 127 105 233 190 23 18 80 76 107 109 50 61 80 215 60 307 -9 38 -195 501
-266 659 -7 17 -41 98 -75 180 -90 220 -115 267 -167 319 -54 55 -147 104
-212 112 -25 3 -54 7 -65 8 -11 2 -47 -2 -81 -9z"/>
<path d="M3397 5759 c-68 -10 -135 -62 -169 -129 -49 -99 -24 -223 59 -287 68
-52 71 -53 298 -67 338 -22 684 -154 970 -370 149 -112 330 -308 431 -466 134
-210 243 -499 269 -709 4 -30 8 -62 10 -73 2 -10 7 -67 10 -126 7 -128 11
-156 30 -192 63 -121 202 -168 322 -108 53 27 79 54 109 115 21 45 23 58 19
183 -5 181 -35 373 -89 570 -54 195 -167 435 -296 628 -400 599 -1032 970
-1750 1028 -113 9 -174 10 -223 3z"/>
<path d="M3397 4799 c-111 -17 -198 -126 -193 -243 3 -71 24 -117 75 -165 47
-44 82 -58 166 -66 39 -3 88 -8 110 -11 403 -44 733 -395 761 -808 7 -114 12
-135 40 -183 62 -107 199 -147 311 -91 54 27 79 54 108 115 21 43 23 60 20
153 -1 58 -6 123 -10 145 -53 303 -173 541 -375 746 -166 169 -329 271 -555
347 -144 49 -352 76 -458 61z"/>
<path d="M3459 3835 c-102 -20 -187 -89 -234 -190 -27 -57 -26 -184 1 -246 43
-93 127 -161 231 -185 140 -32 291 45 354 183 27 59 33 165 12 224 -52 154
-208 245 -364 214z"/>
</g>
</svg>
